<?xml version="1.0" encoding="UTF-8"?><svg id="Layer_2" xmlns="http://www.w3.org/2000/svg" viewBox="0 0 211.79 178.24"><defs><style>.cls-1{stroke-width:0px;}</style></defs><g id="Layer_1-2"><path class="cls-1" d="M127.21,104.94c0,1.1,0,2.2,0,3.31.03,17.04.06,34.08.1,51.12,0,.88.05,1.77-.03,2.64-.17,1.95-1.43,3.1-3.29,3.09-1.89,0-3.15-1.12-3.35-3.05-.07-.71-.04-1.44-.04-2.16-.05-20.8-.09-41.6-.15-62.4,0-1.68-.09-3.36-.12-5.04-.02-1.32.44-2.35,1.77-2.82,1.31-.47,2.43-.21,3.4,1.02,1.34,1.69,2.51,3.51,3.86,5.2,8.66,10.89,17.33,21.77,26.03,32.63,10,12.48,20.03,24.92,30.03,37.39,2.5,3.12,5.43,5.28,9.67,5.44,5.68.21,9.01-4.2,9.9-7.83.82-3.34.23-6.5-2.05-9.24-5.05-6.09-10.05-12.23-15.12-18.31-6.09-7.31-12.23-14.57-18.35-21.85-.15-.18-.31-.36-.46-.55-1.89-2.45-1.12-4.59,1.85-5.36,2.7-.7,5.47-1.27,8.03-2.34,13.13-5.49,21.45-15.16,24.93-29,1.68-6.69,1.45-13.31-.35-19.92-1.65-6.07-4.9-11.27-9.06-15.9-7.31-8.12-16.55-12.34-27.4-13.13-2.23-.16-4.47-.25-6.71-.25-21.92-.02-43.84.01-65.76-.02-3.56,0-6.61.98-8.91,3.8-2.58,3.16-2.95,6.71-1.42,10.37,1.6,3.83,4.75,5.69,8.83,5.99,1.59.12,3.2.05,4.8.05,22,0,44,0,66-.02,6.9,0,12.37,2.84,16.52,8.25,7.18,9.34,4.64,22.77-5.41,29.41-4.53,2.99-9.5,3.59-14.7,3.17-1.57-.13-2.7-1.22-3-2.67-.28-1.32.31-2.6,1.75-3.35.68-.36,1.51-.51,2.28-.58,1.11-.1,2.24-.02,3.36-.04,5.76-.09,10.96-4.01,12.64-9.3,2.17-6.81-.91-12.92-5.04-15.78-2.6-1.8-5.43-2.59-8.56-2.58-22.8.03-45.6,0-68.4.06-3.52,0-6.86-.58-9.92-2.32-6.51-3.69-9.69-11.22-7.88-18.49,1.72-6.93,8.31-12.29,15.54-12.51,4.24-.13,8.48-.1,12.72-.1,18.56-.01,37.12-.05,55.68,0,6.92.02,13.7.99,20.21,3.52,9.07,3.53,16.3,9.36,21.74,17.4,6,8.86,8.6,18.66,7.93,29.32-.56,8.94-3.62,17.01-8.93,24.19-5.74,7.78-13.1,13.49-22.18,16.92-.8.3-1.58.68-2.63,1.14.64.83,1.13,1.52,1.67,2.17,5.36,6.46,10.72,12.91,16.08,19.38,4.29,5.17,8.65,10.28,12.82,15.55,4.35,5.49,4.87,12.89,1.45,18.67-6.41,10.86-19.84,10.71-27.06,3.15-2.59-2.71-4.8-5.77-7.17-8.69-8-9.88-16.01-19.75-23.96-29.66-7.25-9.04-14.44-18.14-21.66-27.2-.58-.72-1.2-1.42-1.8-2.12-.24.09-.47.18-.71.27Z"/><path class="cls-1" d="M107.22,126.95c0-11.36-.01-22.72,0-34.08,0-5.46,1.66-10.23,6.09-13.74,6.47-5.13,15.2-4.62,20.83,1.46,2.92,3.16,5.43,6.7,8.13,10.06,7.76,9.66,15.52,19.31,23.28,28.97,5.71,7.1,11.39,14.23,17.16,21.28,4.76,5.81,9.62,11.54,14.48,17.26,1.09,1.29,1.54,2.61.91,4.18-.84,2.1-3.4,2.77-5.16,1.34-.55-.45-1.05-.99-1.5-1.55-9.7-12-19.41-23.99-29.08-36.01-9.72-12.08-19.39-24.2-29.08-36.31-.95-1.18-1.82-2.43-2.79-3.6-3.04-3.68-6.69-4.76-10.89-3.27-3.66,1.29-5.89,4.74-5.89,9.26,0,10.8.02,21.6.03,32.4.01,12.16.06,24.32.02,36.48-.01,3.53,1.19,6.41,4,8.55,3.3,2.5,6.95,2.84,10.64,1.15,3.64-1.66,5.62-4.72,5.82-8.7.16-3.27,0-6.56-.01-9.84,0-.64-.04-1.29.07-1.91.27-1.56,1.41-2.51,3-2.59,1.72-.09,2.96.8,3.33,2.46.12.54.14,1.11.14,1.67.03,3.28.09,6.56.04,9.84-.15,9-7.71,16.5-16.63,16.53-9.08.03-16.81-7.4-16.9-16.49-.11-11.6-.03-23.2-.03-34.8,0,0-.01,0-.02,0Z"/><path class="cls-1" d="M130.04,41.06c-11.76,0-23.52-.01-35.28.02-1.62,0-2.99-.3-3.95-1.74-1.05-1.58-1.01-2.92.54-3.96.93-.62,2.2-1.01,3.32-1.01,22.48-.06,44.95-.02,67.43-.06,6.61-.01,12.87,1.28,18.66,4.54,11.28,6.36,18.5,18.75,16.96,32.5-1.19,10.65-6.32,19.03-15.11,25.03-6.18,4.22-13.14,6.14-20.67,5.69-1.96-.12-3.41-1.54-3.43-3.31-.02-1.67,1.26-2.93,3.29-3.12,1.59-.15,3.2-.17,4.79-.31,15.19-1.38,28.32-16.52,23.93-34.13-2.78-11.15-12.94-19.84-25.69-20.15-8.15-.2-16.32-.04-24.48-.05-3.44,0-6.88,0-10.32,0,0,.02,0,.04,0,.06Z"/><path class="cls-1" d="M33.4,78.77c0,1.1,0,2.2,0,3.3.06,19.92.12,39.83.18,59.75.02,7.28-4.78,13.92-11.7,16.2-6.68,2.2-14.33-.22-18.6-6.02-2.14-2.9-3.23-6.2-3.22-9.86.02-6.64-.05-13.28-.05-19.92C0,83.11,0,44,0,4.89c0-.56-.03-1.12,0-1.68C.12,1.63,1.04.35,2.6.23,6.42-.05,10.35-.48,13.79,1.74c1.64,1.06,3.21,2.4,4.44,3.92,9.78,12.03,19.45,24.16,29.21,36.21,8.85,10.93,17.75,21.83,26.68,32.7,6.75,8.21,13.55,16.38,20.36,24.54,5.47,6.55,7.93,14.15,7.96,22.58.04,11.44,0,22.88.01,34.31,0,1.84.06,3.68.05,5.52-.06,8.83-7.52,16.55-16.25,16.68-9.11.14-17.1-6.72-17.31-16-.14-5.92-.08-11.84-.11-17.76-.03-5.6-.03-11.2-.07-16.8-.03-4.21-1.19-8.1-3.84-11.38-9.84-12.19-19.76-24.31-29.66-36.45-.39-.47-.88-.86-1.32-1.29-.18.08-.35.17-.53.25ZM6.4,7.05c0,.93,0,1.87,0,2.8.03,43.83.06,87.65.09,131.48,0,.72,0,1.44.09,2.15.96,7.4,9.44,11.34,15.7,7.26,3.39-2.2,4.73-5.45,4.72-9.41-.03-23.67-.04-47.34-.05-71.02,0-1.44-.04-2.88-.04-4.32,0-1.15.5-2.02,1.57-2.47,1.13-.47,2.03.03,2.76.87.88,1.03,1.73,2.09,2.58,3.15,11,13.51,21.85,27.15,33.05,40.49,5.84,6.96,8.88,14.54,8.62,23.68-.28,9.91-.06,19.83-.02,29.75.02,4.87,3.18,8.85,7.78,9.96,4.7,1.13,9.6-1.03,11.62-5.46.73-1.6.96-3.55.98-5.35.08-9.2.04-18.39,0-27.59-.02-4.64-.02-9.28-.23-13.91-.29-6.54-2.73-12.22-7.04-17.18-4.92-5.67-9.73-11.45-14.49-17.26-12.42-15.14-24.8-30.3-37.18-45.48-8.08-9.91-16.15-19.83-24.15-29.81-1.64-2.05-3.52-2.85-6.37-2.35Z"/><path class="cls-1" d="M19.91,41.04c0,.95,0,1.89,0,2.84.08,32.08.16,64.16.24,96.24,0,.8.06,1.61-.04,2.4-.23,1.77-1.76,3.1-3.43,3.09-1.5,0-2.99-1.36-3.28-3-.07-.39-.04-.8-.04-1.2.03-21.12.07-42.24.08-63.36.01-15.76,0-31.52.01-47.28,0-.8-.02-1.62.15-2.39.45-2.03,2.72-2.77,4.3-1.43.36.31.64.71.94,1.09,12.56,15.44,25.1,30.91,37.69,46.32,7.89,9.66,15.86,19.25,23.81,28.86,4.15,5.02,7.15,10.59,8.15,17.11.2,1.34.34,2.7.34,4.06.04,12.16.05,24.32.07,36.48,0,.4.02.8-.03,1.2-.22,1.63-1.45,2.85-2.97,2.96-1.6.12-2.97-.8-3.41-2.42-.19-.68-.18-1.42-.18-2.14.01-11.6-.02-23.2.08-34.8.05-6.01-1.7-11.38-5.37-16.06-3.99-5.1-8.16-10.05-12.26-15.07-8.49-10.4-16.99-20.8-25.48-31.21-5.31-6.5-10.6-13.01-15.92-19.5-.89-1.09-1.91-2.07-2.86-3.1l-.58.31Z"/></g></svg>